<svg width="123" height="105" viewBox="0 0 123 105" fill="none" xmlns="http://www.w3.org/2000/svg">
<g id="Group 15">
<g id="Group 14">
<circle id="Ellipse 9" cx="80.4959" cy="40.2564" r="23.9973" fill="#FFEC8D" stroke="#707070" stroke-width="4"/>
<line id="Line 9" x1="78.4956" y1="77.6462" x2="78.4956" y2="73.7683" stroke="#707070" stroke-width="4" stroke-linecap="round"/>
<line id="Line 18" x1="78.4956" y1="6.74438" x2="78.4956" y2="2.8664" stroke="#707070" stroke-width="4" stroke-linecap="round"/>
<line id="Line 7" x1="113.22" y1="39.0442" x2="120.249" y2="39.0442" stroke="#707070" stroke-width="4" stroke-linecap="round"/>
<line id="Line 17" x1="40.7424" y1="39.0442" x2="47.7716" y2="39.0442" stroke="#707070" stroke-width="4" stroke-linecap="round"/>
<line id="Line 10" x1="108.856" y1="18.5207" x2="110.755" y2="16.6223" stroke="#707070" stroke-width="4" stroke-linecap="round"/>
<line id="Line 15" x1="50.5596" y1="64.2132" x2="52.4579" y2="62.3148" stroke="#707070" stroke-width="4" stroke-linecap="round"/>
<line id="Line 14" x1="108.856" y1="64.2132" x2="110.755" y2="62.3148" stroke="#707070" stroke-width="4" stroke-linecap="round"/>
<line id="Line 16" x1="56.8618" y1="15.3694" x2="58.7602" y2="13.4711" stroke="#707070" stroke-width="4" stroke-linecap="round"/>
</g>
<path id="Path 4" d="M87.7044 102.039C79.7594 102.039 49.5855 102.039 40.3363 102.039C35.1926 102.039 30.2032 101.032 25.5068 99.0455C20.9701 97.1266 16.8955 94.3793 13.3961 90.8799C9.89673 87.3806 7.14943 83.3059 5.23051 78.7692C3.24405 74.0728 2.23682 69.0834 2.23682 63.9397C2.23682 58.796 3.24405 53.8066 5.23051 49.1102C7.14943 44.5735 9.89673 40.4989 13.3961 36.9995C16.8955 33.5001 20.9701 30.7528 25.5068 28.8339C30.2032 26.8474 35.1926 25.8402 40.3363 25.8402C47.8147 25.8402 55.0534 28.0052 61.2701 32.1011C67.3318 36.095 72.1088 41.6939 75.0847 48.2925L75.5055 49.2255L76.441 48.8104C79.9946 47.2338 83.7842 46.4344 87.7044 46.4344C95.1305 46.4344 102.112 49.3266 107.363 54.5781C112.614 59.8294 115.506 66.8114 115.506 74.2378C115.506 81.664 112.614 88.6456 107.363 93.8965C102.112 99.1474 95.1306 102.039 87.7044 102.039Z" fill="#EAEFFB" stroke="#707070" stroke-width="4"/>
</g>
</svg>
