<svg width="139" height="87" viewBox="0 0 139 87" fill="none" xmlns="http://www.w3.org/2000/svg">
<g id="Group 16">
<path id="Path 4" d="M106.015 84.8968C97.3857 84.8968 64.6123 84.8968 54.5663 84.8968C48.9794 84.8968 43.5602 83.8028 38.4591 81.6453C33.5316 79.5611 29.1059 76.5772 25.305 72.7764C21.5042 68.9757 18.5202 64.5501 16.4359 59.6226C14.2783 54.5218 13.1843 49.1027 13.1843 43.516C13.1843 37.9292 14.2783 32.5102 16.4359 27.4093C18.5202 22.4818 21.5042 18.0563 25.305 14.2555C29.1059 10.4548 33.5316 7.47085 38.4591 5.38665C43.5602 3.22911 48.9794 2.13513 54.5663 2.13513C62.6889 2.13513 70.5513 4.48658 77.3035 8.93527C83.8875 13.2731 89.0761 19.3542 92.3084 26.5212L92.7654 27.5345L93.7815 27.0837C97.6413 25.3713 101.757 24.503 106.015 24.503C114.081 24.503 121.664 27.6442 127.368 33.348C133.071 39.0517 136.212 46.635 136.212 54.7009C136.212 62.7667 133.071 70.3496 127.368 76.0528C121.664 81.7559 114.081 84.8968 106.015 84.8968Z" fill="#EAEFFB" stroke="#707070" stroke-width="4"/>
<path id="Path 5" d="M74.58 84.7372C67.833 84.7372 42.209 84.7372 34.3545 84.7372C29.9864 84.7372 25.7494 83.8819 21.7611 82.195C17.9085 80.5655 14.4483 78.2325 11.4766 75.2609C8.50488 72.2893 6.17185 68.8291 4.54227 64.9766C2.85535 60.9884 2 56.7515 2 52.3836C2 48.0156 2.85535 43.7787 4.54227 39.7905C6.17185 35.938 8.50488 32.4779 11.4766 29.5062C14.4483 26.5346 17.9085 24.2016 21.7611 22.5721C25.7494 20.8852 29.9864 20.0299 34.3545 20.0299C40.7052 20.0299 46.8524 21.8684 52.1317 25.3466C57.2794 28.7381 61.3361 33.4927 63.8632 39.0962L64.2206 39.8884L65.015 39.536C68.0328 38.1971 71.2509 37.5183 74.58 37.5183C80.8863 37.5183 86.8152 39.9742 91.2744 44.4338C95.7335 48.8932 98.1893 54.8222 98.1893 61.1285C98.1893 67.4348 95.7335 73.3635 91.2744 77.8225C86.8153 82.2815 80.8864 84.7372 74.58 84.7372Z" fill="#EAF1FB" stroke="#707070" stroke-width="4"/>
</g>
</svg>
