<svg width="93" height="100" viewBox="0 0 93 100" fill="none" xmlns="http://www.w3.org/2000/svg">
<path id="Subtraction 2" d="M3.97958 56.0415L2.02725 56.4539L3.97958 56.0415C3.27727 52.7165 2.9041 49.3064 2.8706 45.9077L0.873774 45.9274L2.8706 45.9077C2.83623 42.4204 3.15929 38.8982 3.83139 35.4405C4.50136 31.9938 5.51711 28.6172 6.84929 25.4058C8.1477 22.2759 9.76356 19.2614 11.6512 16.4478L10.0155 15.3505L11.6512 16.4478C13.5046 13.6852 15.64 11.0859 17.997 8.7238L17.997 8.72379C18.7469 7.97223 19.5215 7.24242 20.3184 6.53635C19.7322 8.50505 19.2408 10.5063 18.8478 12.5284C12.2565 46.4375 34.4785 79.3833 68.3875 85.9745C74.1832 87.1011 80.0197 87.4112 85.8113 86.9041C84.3413 88.0016 82.8133 89.0219 81.2356 89.9588C77.6989 92.0591 73.9185 93.7364 70.0005 94.9441C66.0132 96.1731 61.883 96.9154 57.7255 97.1503C53.4437 97.3922 49.1151 97.0962 44.8608 96.2692C41.4032 95.5971 38.0164 94.5772 34.7958 93.2389C31.6571 91.9347 28.6351 90.3112 25.8153 88.4145C23.0465 86.552 20.4427 84.4063 18.0777 82.0377L16.6624 83.4509L18.0777 82.0377C15.735 79.6916 13.605 77.1054 11.748 74.3523C9.89104 71.5991 8.29108 68.6554 6.99338 65.6045L5.16692 66.3813L6.99338 65.6045C5.68325 62.5244 4.66914 59.3063 3.97958 56.0415ZM16.6109 7.34066L16.5962 7.32604L16.6109 7.34066Z" fill="#FFEC8D" stroke="#707070" stroke-width="4"/>
</svg>
